<svg width="44" height="74" viewBox="0 0 44 74" fill="none" xmlns="http://www.w3.org/2000/svg">
<path d="M11.007 33.545C9.95873 31.3436 9.32975 28.8277 9.32975 26.3118C9.43458 16.9821 16.9823 9.43452 26.312 9.43452V0C11.7408 0 0 11.7407 0 26.3118C0 30.505 1.04829 34.5932 2.83037 38.0526C2.83037 38.0526 4.71729 43.5036 12.6843 53.6719C20.4416 63.6306 26.126 73.0003 26.3357 73.21V54.9699C22.7715 48.7851 14.5712 42.665 11.007 33.545Z" fill="#00FFCF"/>
<path d="M26.3126 16.371C20.7567 16.371 16.249 20.8787 16.249 26.4345C16.249 31.9904 20.7567 36.498 26.3126 36.498V16.371Z" fill="#FF00E5"/>
<path d="M26.312 43.6085V54.9299C26.4168 54.8251 30.1907 49.0595 35.1176 42.9795C37.4239 40.1491 38.8915 38.0526 39.8349 36.585C41.617 34.1739 42.7701 31.3436 43.0846 28.1987C43.1894 27.5698 43.1894 26.836 43.1894 26.207C43.1894 23.3767 42.4556 20.756 41.0929 18.4497C38.3673 12.9987 32.7066 9.43453 26.312 9.43453V9.95867V15.7242V16.3532C31.8679 16.3532 36.3756 20.8608 36.3756 26.4167C36.3756 31.9726 31.8679 36.4802 26.312 36.4802V43.294V43.6085Z" fill="#F6EE24"/>
</svg>
