<svg width="73" height="73" viewBox="0 0 73 73" fill="none" xmlns="http://www.w3.org/2000/svg">
<path d="M36.5 73C56.6584 73 73 56.6584 73 36.5C73 16.3416 56.6584 0 36.5 0C16.3416 0 0 16.3416 0 36.5C0 56.6584 16.3416 73 36.5 73Z" fill="black"/>
<path d="M36.4992 59.6613C49.2908 59.6613 59.6605 49.2916 59.6605 36.4999C59.6605 23.7083 49.2908 13.3386 36.4992 13.3386C23.7076 13.3386 13.3379 23.7083 13.3379 36.4999C13.3379 49.2916 23.7076 59.6613 36.4992 59.6613Z" fill="black"/>
<path d="M36.5004 65.7074C20.3619 65.7074 7.29297 52.6384 7.29297 36.4999C7.29297 20.3614 20.3619 7.29248 36.5004 7.29248C52.6389 7.29248 65.7079 20.3614 65.7079 36.4999C65.7079 46.9179 60.2663 56.0336 52.0808 61.196" fill="black"/>
<mask id="mask0_1101_242" style="mask-type:alpha" maskUnits="userSpaceOnUse" x="7" y="7" width="59" height="59">
<path d="M36.5004 65.7074C20.3619 65.7074 7.29297 52.6384 7.29297 36.4999C7.29297 20.3614 20.3619 7.29248 36.5004 7.29248C52.6389 7.29248 65.7079 20.3614 65.7079 36.4999C65.7079 46.9179 60.2663 56.0336 52.0808 61.196" fill="url(#paint0_linear_1101_242)"/>
</mask>
<g mask="url(#mask0_1101_242)">
<path d="M36.5008 63.1473C21.7762 63.1473 9.8534 51.2245 9.8534 36.4998H4.7334C4.7334 54.0522 18.9485 68.2673 36.5008 68.2673V63.1473ZM9.8534 36.4998C9.8534 21.7752 21.7762 9.85242 36.5008 9.85242V4.73242C18.9485 4.73242 4.7334 18.9475 4.7334 36.4998H9.8534ZM36.5008 9.85242C51.2255 9.85242 63.1483 21.7752 63.1483 36.4998H68.2683C68.2683 18.9475 54.0532 4.73242 36.5008 4.73242V9.85242ZM63.1483 36.4998C63.1483 46.0023 58.189 54.3172 50.7156 59.0306L53.4468 63.3613C62.3444 57.7497 68.2683 47.8332 68.2683 36.4998H63.1483Z" fill="url(#paint1_linear_1101_242)"/>
</g>
<path d="M36.4997 63.1959C21.7564 63.1959 9.80371 51.2432 9.80371 36.4999C9.80371 21.7567 21.7564 9.80396 36.4997 9.80396C51.2429 9.80396 63.1957 21.7567 63.1957 36.4999" fill="black"/>
<mask id="mask1_1101_242" style="mask-type:alpha" maskUnits="userSpaceOnUse" x="9" y="9" width="55" height="55">
<path d="M36.4997 63.1959C21.7564 63.1959 9.80371 51.2432 9.80371 36.4999C9.80371 21.7567 21.7564 9.80396 36.4997 9.80396C51.2429 9.80396 63.1957 21.7567 63.1957 36.4999" fill="url(#paint2_linear_1101_242)"/>
</mask>
<g mask="url(#mask1_1101_242)">
<path d="M36.5001 60.6358C23.1707 60.6358 12.3641 49.8292 12.3641 36.4998H7.24414C7.24414 52.6569 20.343 65.7558 36.5001 65.7558V60.6358ZM12.3641 36.4998C12.3641 23.1704 23.1707 12.3639 36.5001 12.3639V7.2439C20.343 7.2439 7.24414 20.3427 7.24414 36.4998H12.3641ZM36.5001 12.3639C49.8295 12.3639 60.6361 23.1704 60.6361 36.4998H65.7561C65.7561 20.3427 52.6572 7.2439 36.5001 7.2439V12.3639Z" fill="url(#paint3_linear_1101_242)"/>
</g>
<path d="M36.4999 60.6381C23.1519 60.6381 12.3154 49.8015 12.3154 36.4536C12.3154 23.1056 23.1519 12.269 36.4999 12.269C49.8479 12.269 60.6844 23.1056 60.6844 36.4536C60.6844 41.616 59.0566 46.4064 56.3126 50.3597" fill="black"/>
<mask id="mask2_1101_242" style="mask-type:alpha" maskUnits="userSpaceOnUse" x="12" y="12" width="49" height="49">
<path d="M36.4999 60.6381C23.1519 60.6381 12.3154 49.8015 12.3154 36.4536C12.3154 23.1056 23.1519 12.269 36.4999 12.269C49.8479 12.269 60.6844 23.1056 60.6844 36.4536C60.6844 41.616 59.0566 46.4064 56.3126 50.3597" fill="url(#paint4_linear_1101_242)"/>
</mask>
<g mask="url(#mask2_1101_242)">
<path d="M36.5004 58.0781C24.5663 58.0781 14.8759 48.3877 14.8759 36.4536H9.75586C9.75586 51.2154 21.7386 63.1981 36.5004 63.1981V58.0781ZM14.8759 36.4536C14.8759 24.5194 24.5663 14.829 36.5004 14.829V9.70898C21.7386 9.70898 9.75586 21.6917 9.75586 36.4536H14.8759ZM36.5004 14.829C48.4346 14.829 58.1249 24.5194 58.1249 36.4536H63.2449C63.2449 21.6917 51.2623 9.70898 36.5004 9.70898V14.829ZM58.1249 36.4536C58.1249 41.069 56.6713 45.3541 54.2101 48.8999L58.4162 51.8194C61.443 47.4587 63.2449 42.163 63.2449 36.4536H58.1249Z" fill="url(#paint5_linear_1101_242)"/>
</g>
<path d="M37.2591 57.9818C37.2591 56.2708 37.2591 54.8154 37.2591 52.6589C37.2591 49.1841 37.2591 50.895 37.2591 49.0469V45.625C30.4154 45.625 26.6133 49.9978 26.6133 55.3857C26.6133 56.9474 26.9926 58.431 27.5994 59.7585C27.5994 59.7585 28.2821 61.7887 31.1267 65.5368C33.9334 69.2458 35.9815 72.7206 36.0574 72.7987L37.4492 72.6198C37.4492 67.677 37.2591 60.4531 37.2591 57.9818Z" fill="black"/>
<path d="M32.0582 58.4124C32.0582 58.4124 32.0582 58.3783 32.0582 58.4124C31.7267 57.6957 31.5277 56.8767 31.5277 56.0577C31.5277 53.0204 33.9146 50.5634 36.8652 50.5634V47.5261C32.2902 47.5261 28.5771 51.3483 28.5771 56.0577C28.5771 57.4227 28.9087 58.7195 29.4391 59.8798C29.4391 59.8798 30.0359 61.6544 32.5223 64.9305C34.9756 68.1725 36.7658 71.2097 36.8321 71.278V65.3059C35.7712 63.3266 33.1854 61.3472 32.0582 58.4124Z" fill="#00FFCF"/>
<path d="M36.8642 52.781C35.1072 52.781 33.6816 54.2484 33.6816 56.0571C33.6816 57.8658 35.1072 59.3332 36.8642 59.3332V52.781Z" fill="#FF00E5"/>
<path d="M36.8642 61.654V65.3055C36.8974 65.2714 38.0577 63.3944 39.649 61.4151C40.3783 60.5278 40.8425 59.8112 41.1408 59.3334C41.7044 58.5485 42.0691 57.6271 42.1685 56.6033C42.2017 56.3986 42.2017 56.1597 42.2017 55.9549C42.2017 55.0335 41.9696 54.1804 41.5386 53.4296C40.6435 51.7233 38.8865 50.563 36.8311 50.563V50.7336V52.6106V52.8153C38.5881 52.8153 40.0137 54.2827 40.0137 56.0914C40.0137 57.9001 38.5881 59.3676 36.8311 59.3676V61.5858L36.8642 61.654Z" fill="#F6EE24"/>
<defs>
<linearGradient id="paint0_linear_1101_242" x1="27.8486" y1="73.811" x2="36.8183" y2="83.2173" gradientUnits="userSpaceOnUse">
<stop stop-color="#00FFCF"/>
<stop offset="1" stop-opacity="0.6"/>
</linearGradient>
<linearGradient id="paint1_linear_1101_242" x1="27.849" y1="73.8109" x2="36.8187" y2="83.2172" gradientUnits="userSpaceOnUse">
<stop stop-color="#00FFCF"/>
<stop offset="1" stop-opacity="0.6"/>
</linearGradient>
<linearGradient id="paint2_linear_1101_242" x1="34.6071" y1="73.2702" x2="83.8145" y2="82.4628" gradientUnits="userSpaceOnUse">
<stop stop-color="#FF00E5"/>
<stop offset="1" stop-color="#FF00E5" stop-opacity="0"/>
</linearGradient>
<linearGradient id="paint3_linear_1101_242" x1="34.6075" y1="73.2701" x2="83.8149" y2="82.4627" gradientUnits="userSpaceOnUse">
<stop stop-color="#FF00E5"/>
<stop offset="1" stop-color="#FF00E5" stop-opacity="0"/>
</linearGradient>
<linearGradient id="paint4_linear_1101_242" x1="20.2778" y1="56.237" x2="58.4" y2="72.7296" gradientUnits="userSpaceOnUse">
<stop stop-color="#F6EE24"/>
<stop offset="1" stop-color="#F6EE24" stop-opacity="0"/>
</linearGradient>
<linearGradient id="paint5_linear_1101_242" x1="20.2783" y1="56.237" x2="58.4005" y2="72.7296" gradientUnits="userSpaceOnUse">
<stop stop-color="#F6EE24"/>
<stop offset="1" stop-color="#F6EE24" stop-opacity="0"/>
</linearGradient>
</defs>
</svg>
